<svg width="106" height="121" viewBox="0 0 106 121" fill="none" xmlns="http://www.w3.org/2000/svg">
<path d="M3.85305 31.9816C3.38876 32.0397 3.44839 32.5504 3.44839 31.4758C3.44839 30.7033 3.65071 30.0099 3.65071 29.2501C3.65071 28.1237 3.50839 26.9317 3.44839 25.9116C3.31633 23.6665 2.23438 22.1841 2.23438 19.8415C2.23438 17.7496 4.15302 15.9895 5.51669 14.6258C6.37603 13.7664 7.58513 8.30846 9.5634 10.2868C11.1189 11.8424 10.8095 13.9173 12.3961 15.3452C13.948 16.7419 15.0603 18.3916 16.5552 19.8865C16.999 20.3303 17.6629 21.9429 17.8029 22.5731C18.1684 24.2177 19.2137 23.7939 20.2872 24.6526C22.17 26.1588 24.9024 24.9217 26.9193 24.6976C28.0983 24.5666 29.0397 23.4836 30.2578 23.4836C31.2291 23.4836 32.6939 23.652 33.4389 24.2479C35.1127 25.5869 37.7619 23.5415 38.857 22.382C40.6057 20.5304 40.6733 17.9129 42.3417 16.2445C43.8805 14.7056 45.8279 14.3269 47.1977 12.8048C48.6861 11.1509 48.0222 13.5691 49.2773 13.5691C50.596 13.5691 50.9811 13.0681 51.8514 12.1978C53.3131 10.7361 54.9265 9.52244 57.2695 9.52244C59.1157 9.52244 62.1926 10.9396 63.1822 8.7131C63.7078 7.53063 62.9636 5.88041 65.0594 5.88041C66.0919 5.88041 67.6529 4.98903 68.7014 4.6664C69.5941 4.39173 74.7366 1.30674 75.0863 2.53064C75.1361 2.70529 75.9596 3.06529 76.1316 3.45239C76.394 4.04271 76.4913 4.40169 76.4913 5.07107C76.4913 6.26161 76.6937 7.56269 76.6937 8.81427C76.6937 9.43614 77.8408 10.6424 78.2674 10.9837C79.2083 11.7365 80.0441 11.1721 80.8416 10.5341C81.1363 10.2983 81.2178 9.64986 81.3924 9.32011C81.6543 8.82531 82.3211 8.6214 82.7188 8.26347C83.5636 7.50314 84.3421 7.09442 85.4953 7.09442C86.6041 7.09442 87.7814 6.53573 88.7888 7.34172C89.6474 8.02858 90.9307 7.69214 91.6665 8.61193C92.2164 9.2993 92.7796 10.5413 93.4875 10.9837C94.4459 11.5828 95.8265 12.41 96.1066 13.6703C96.347 14.7522 96.828 15.6711 97.3768 16.6042C97.9084 17.5078 99.2725 17.8829 99.5688 18.9198C99.9013 20.0835 100.231 21.4138 101.131 22.3145C101.786 22.9688 102.375 24.2745 102.581 25.2034C102.797 26.1761 102.997 27.3397 102.997 28.3396C102.997 29.3103 103.739 30.1756 103.998 31.0824C104.48 32.7702 102.996 35.9887 101.682 37.04C99.9527 38.4235 98.4046 40.2691 96.6237 41.6937C95.5871 42.523 94.7284 43.7046 93.8472 44.6838C93.1649 45.442 92.934 47.1544 92.1723 47.7638C91.6395 48.19 91.6411 50.3941 92.4758 50.3941C93.3287 50.3941 94.4406 50.9099 94.9038 51.7206C95.4381 52.6556 96.5767 53.0373 97.2869 53.6765C97.6669 54.0185 97.705 54.4752 98.2536 54.6319C98.497 54.7015 99.4255 54.9839 99.5575 55.149C100.153 55.8939 100.367 57.3398 100.367 58.2852C100.367 59.6707 99.375 59.3924 98.2536 59.7128C97.2471 60.0004 96.5691 60.7404 95.7132 61.2753C94.6978 61.9099 94.4713 62.9232 93.8472 63.7033C92.8592 64.9382 91.8433 66.9635 90.0478 67.188C89.0032 67.3185 87.854 67.3903 86.7093 67.3903C85.5568 67.3903 84.6258 66.7833 83.3707 66.7833C82.123 66.7833 80.8753 66.7833 79.6275 66.7833C78.3515 66.7833 77.1124 67.3221 75.8843 67.3903C73.1791 67.5406 72.3164 68.2155 70.4663 70.0656C69.9051 70.6268 69.716 72.9006 70.3201 73.3704C71.2109 74.0632 72.1405 74.6012 72.8943 75.4387C74.6439 77.3827 76.2456 78.6934 76.0867 81.5537C76.0347 82.4901 74.9369 83.6052 74.6816 84.4988C74.3732 85.5782 73.4563 86.2284 73.4563 87.4215C73.4563 88.2162 73.83 90.3374 73.3439 90.9623C72.7133 91.7731 71.7412 92.2978 71.1407 93.1318C70.3967 94.1651 69.4802 95.0339 68.7127 96.0207C68.0892 96.8223 66.693 96.5997 65.925 97.2909C64.9147 98.2002 64.754 98.6952 65.1493 100.079C65.4588 101.162 65.0951 102.246 64.3063 102.956C63.5914 103.6 62.3434 104.167 61.4286 104.429C60.2747 104.759 59.5181 105.585 58.4835 106.194C56.1846 107.546 58.1969 110.684 56.6175 112.264C55.6968 113.184 55.774 114.122 54.3469 113.714C53.5882 113.497 52.8203 112.22 52.0088 111.859C51.2237 111.51 49.4352 111.591 48.9738 112.399C48.6076 113.04 47.8448 114.689 47.1528 115.096C46.2606 115.621 45.8294 117.095 44.8372 117.378C43.4895 117.763 42.3155 118.715 40.9253 119.143C39.8589 119.471 37.2456 113.801 37.0248 113.028C36.6763 111.808 37.4407 110.996 37.4407 109.881C37.4407 109.077 37.0887 107.168 37.7442 106.643C38.621 105.942 38.326 104.222 39.0144 103.361C39.7037 102.499 38.4524 101.127 38.4524 100.27C38.4524 99.5894 38.9205 99.6309 39.3067 99.2019C39.6906 98.7752 39.1808 97.9934 39.509 97.5832C40.1648 96.7635 39.3694 95.1653 38.5648 94.7055C37.1991 93.9252 38.2765 92.5228 39.2617 92.0302C40.5896 91.3662 40.8804 91.3773 40.8804 89.7483C40.8804 87.7733 36.8029 86.3527 36.2154 84.2965C35.684 82.4366 32.4084 81.3549 31.0784 80.025C29.3908 78.3376 26.724 78.5258 24.9971 76.7989C24.0439 75.8457 23.4796 75.2681 23.4796 73.865C23.4796 72.803 23.4544 70.7655 22.7714 69.9307C21.8773 68.838 21.3158 67.7438 20.2422 66.7833C19.2143 65.8636 17.6573 65.3491 18.6235 63.6583C19.0307 62.9458 20.9732 62.9792 21.6585 62.9389C22.5197 62.8883 20.7876 60.5241 20.6469 60.2074C19.9992 58.7501 19.766 58.1723 18.2188 57.5208C17.0167 57.0147 15.8115 57.2559 14.678 56.3743C13.7909 55.6844 12.8963 55.3788 12.1937 54.5982C11.7689 54.1262 10.7045 51.9003 11.4631 51.3946C12.6233 50.6211 13.6908 49.4501 14.6218 48.4158C15.2626 47.7038 14.9815 45.9654 14.9815 45.0323C14.9815 43.9885 14.6415 42.7934 14.5768 41.6937C14.5314 40.9218 12.9429 39.7809 12.4635 39.1645C12.1186 38.7211 12.5941 38.0024 12.1937 37.6021C11.8921 37.3004 11.6114 36.9655 11.2945 36.6803C10.6394 36.0908 9.17895 35.2521 8.39435 35.0279C7.39429 34.7422 6.18684 34.7021 5.2694 34.1624C4.75982 33.8626 4.58037 33.0012 4.21275 32.6336C3.98058 32.4014 2.76888 32.5886 2.4367 32.5886" stroke="black" stroke-width="3" stroke-linecap="round"/>
</svg>
