<svg width="102" height="77" viewBox="0 0 102 77" fill="none" xmlns="http://www.w3.org/2000/svg">
<path d="M32.1936 16.8166C33.8627 16.8166 35.5604 16.1115 37.364 16.1115C38.4693 16.1115 38.1954 14.9407 38.7218 14.4142C39.2364 13.8996 40.0584 13.5833 40.4192 12.9519C41.4251 11.1913 41.5942 10.0032 41.5942 7.88603C41.5942 5.66733 41.9353 4.93322 43.2393 3.30324C45.2486 0.79162 50.7628 1.77565 53.6975 1.77565C55.8545 1.77565 56.8581 1.954 58.4631 3.23796C59.6608 4.19614 62.3111 2.53809 63.5681 2.25873C65.2564 1.88352 66.5892 1.54063 68.5034 1.54063C69.6169 1.54063 73.3739 0.924729 74.209 1.59286C74.8977 2.14381 75.8312 2.16477 74.9141 2.89849C74.1848 3.48194 74.5907 3.5988 75.5669 3.87773C76.8564 4.24618 79.1938 4.82311 80.1889 5.71867C81.2925 6.71196 82.9437 7.60251 84.2624 8.35606C85.4293 9.02283 86.2525 10.5262 87.6571 11.2285C88.922 11.8609 90.4459 12.6552 91.5348 13.5264C92.1247 13.9982 92.4378 14.5062 93.1669 14.7145C93.6055 14.8398 93.7408 16.6326 93.9503 17.0516C94.7384 18.628 95.0367 20.3055 96.3004 21.5691C97.2958 22.5644 98.3394 24.064 98.7158 25.3816C99.2212 27.1504 102.071 34.4371 99.5384 35.1608C97.6991 35.6863 98.4156 38.3104 99.6428 38.9602C101.568 39.9794 99.1074 42.2975 98.3503 42.9032C95.7234 45.0046 96.1176 49.4543 96.1176 52.6563C96.1176 54.6178 95.9274 56.0835 95.4256 57.8397C95.013 59.2836 95.7297 61.9291 93.7675 62.1744C92.3314 62.3539 91.6763 64.4358 90.9473 65.3471C90.3954 66.037 89.7912 66.851 89.3022 67.4622C88.6407 68.2891 87.6427 67.5912 87.0043 68.102C86.4806 68.5209 86.012 69.7308 86.012 70.3999C86.012 71.7443 85.4072 71.1504 84.4713 70.883C82.8644 70.4239 82.1237 68.7548 80.1366 68.7548C78.9918 68.7548 78.7255 68.6974 78.0737 69.5121C77.5645 70.1487 78.3355 71.6382 78.844 72.045C81.2354 73.958 76.5197 72.5151 76.1414 72.5151C72.3878 72.5151 68.5938 70.9231 65.6963 73.8207C65.4142 74.1028 63.9206 75.8422 63.9206 74.9827C63.9206 74.3053 63.3935 73.2675 62.9283 72.8023C61.8091 71.683 59.9254 71.74 59.9254 69.8124C59.9254 68.9406 58.9853 68.1444 58.9853 67.2272C58.9853 66.5271 57.1519 66.6866 56.6352 66.4569C55.3238 65.874 52.777 65.9346 51.3473 65.9346C49.1789 65.9346 47.4856 67.0242 45.5895 67.867C44.8485 68.1963 44.1648 68.4415 43.4743 68.807C42.3726 69.3903 41.8645 68.5467 40.9936 68.2978C39.2871 67.8103 37.8519 67.4321 36.0714 67.8278C35.1597 68.0304 34.482 68.9898 33.4862 68.9898C32.7604 68.9898 31.541 69.183 30.9664 69.6426C30.5968 69.9383 29.2104 70.1068 28.6684 70.3477C27.9104 70.6846 26.5604 70.4375 25.7307 70.6219C24.8612 70.8151 24.173 70.8954 23.3937 71.118C22.5142 71.3693 22.3078 71.81 21.148 71.81C19.1987 71.81 18.5628 69.8404 18.5628 68.1673C18.5628 67.2201 18.7978 66.5292 18.7978 65.5821C18.7978 64.1959 18.755 64.3511 17.8055 63.4017C17.2292 62.8254 16.1403 63.2916 15.5598 62.8272C14.9292 62.3227 14.4366 61.7876 13.745 61.2343C12.8501 60.5185 12.5801 57.637 11.2774 57.4741C9.98716 57.3128 7.67262 57.0815 6.62928 56.2468C6.0047 55.7472 5.716 55.2227 5.21919 54.6017C4.95958 54.2772 5.29658 53.7738 4.98418 53.4266C4.83879 53.2651 4.29797 52.6112 4.23997 52.4082C3.65063 50.3454 3.83689 49.7306 5.40198 48.0735C6.73811 46.6589 8.2472 46.0122 7.73908 43.7258C7.58731 43.0428 7.724 41.7057 7.16459 41.2581C6.84964 41.0061 6.13055 39.5428 6.10703 39.143C6.05825 38.3138 5.24477 34.851 4.59249 34.6646C3.7627 34.4276 2.93201 33.7376 1.99428 33.7376C1.28726 33.7376 1.8355 31.806 1.45897 31.3353C0.600368 30.2619 1.51448 29.8912 2.05956 29.4551C2.36784 29.2085 2.56388 28.8637 2.86905 28.6195C3.20919 28.3474 3.93357 28.8165 4.22692 28.4498C4.57467 28.0151 5.62715 27.8746 6.10703 27.2747C6.75727 26.462 7.21483 25.7471 8.33967 25.7471C10.0467 25.7471 12.2991 26.2607 13.9147 26.7394C15.1445 27.1038 25.8483 28.8419 25.8483 27.1572C25.8483 26.86 23.8058 26.8643 23.4459 26.5044C23.0779 26.1364 22.6183 24.5238 23.1456 24.102C23.7873 23.5887 24.2326 22.78 25.0257 22.3394C25.7396 21.9428 26.7097 21.9174 27.4934 21.5691C28.9171 20.9363 30.1221 19.7722 31.5931 18.9317C32.044 18.674 32.778 17.8853 32.9117 17.4172C33.0002 17.1075 33.2672 16.7607 33.3557 16.451C33.4432 16.1447 33.2275 15.4065 33.3687 15.4065" stroke="black" stroke-width="2" stroke-linecap="round"/>
</svg>
