<svg width="150" height="118" viewBox="0 0 150 118" fill="none" xmlns="http://www.w3.org/2000/svg">
<path d="M21.4463 14.9252C19.9813 14.9252 19.3854 17.1488 18.6261 18.0979C18.33 18.4681 16.6344 18.2154 16.1584 18.2154C14.6241 18.2154 15.0825 18.5101 14.6831 19.8083C14.2766 21.1294 14.7324 23.3985 13.5733 24.3258C12.3662 25.2914 10.8526 26.8152 9.22551 26.911C8.76045 26.9383 8.99049 31.3465 8.99049 31.9638C8.99049 33.773 8.3789 35.0995 8.28545 36.7816C8.19015 38.497 6.05205 44.85 7.58041 45.5293C8.65084 46.0051 10.7135 47.5143 9.81304 48.4148C8.41168 49.8162 8.28545 50.8256 8.28545 52.7626C8.28545 54.4306 8.52046 56.2812 8.52046 57.8154C8.52046 58.8008 10.0389 60.8298 10.6878 61.6409C12.5256 63.9379 13.5972 67.0418 14.9181 69.6836C15.6217 71.0908 16.3547 72.4576 17.0985 73.7964C18.4024 76.1433 15.9956 76.7931 14.8136 77.8569C13.7097 78.8504 11.8052 78.5035 10.8706 79.6717C9.84759 80.9505 10.1656 82.6008 10.1656 84.2545C10.1656 85.8948 10.7674 87.4914 11.1187 89.0723C11.4484 90.5561 12.8955 91.8856 12.9857 93.4201C13.0817 95.0513 13.2208 96.7374 13.2208 98.4729C13.2208 99.9137 9.60842 100.488 8.70325 99.5827C7.05967 97.9392 1 95.8892 1 99.7655C1 101.176 2.31096 102.152 3.4807 102.821C5.12791 103.762 5.70028 104.997 5.70028 106.816C5.70028 107.603 5.66435 111.281 6.75786 111.281C8.42701 111.281 9.33895 112.935 10.4528 114.049C11.3885 114.985 13.6943 115.63 14.9703 115.995C16.6758 116.482 18.4697 115.655 19.3834 114.101C19.7816 113.424 20.9874 112.641 21.6813 112.273C22.1457 112.028 23.5467 111.476 23.7964 111.164C24.1973 110.663 25.2289 110.423 25.7288 109.923C26.5199 109.132 25.4092 108.289 25.2196 107.625C24.7857 106.107 23.3136 104.697 22.5691 103.291C22.3214 102.823 21.2785 101.478 22.3863 102.586C23.0738 103.273 23.6141 103.971 24.3839 104.57C26.3725 106.117 29.2485 109.795 32.1394 109.153C35.5514 108.395 38.8345 107.521 42.4801 107.521C43.8104 107.521 46.5818 106.553 47.4807 107.991C48.2437 109.212 48.7148 110.702 49.648 111.869C50.9263 113.467 52.1748 113.373 53.6433 111.986C54.7916 110.902 57.2181 110.397 58.1085 109.284C58.7945 108.426 62.4635 107.521 63.5139 107.521C65.6423 107.521 67.7334 106.816 69.8593 106.816C73.6171 106.816 76.7424 103.867 80.5524 104.714C82.1822 105.076 83.6694 106.111 85.3702 106.111C86.4047 106.111 89.2337 106.475 90.0183 107.103C91.002 107.89 94.0618 107.991 95.3584 107.991C96.6231 107.991 98.5128 109.327 99.7061 109.923C101.3 110.72 102.118 108.539 102.513 107.155C102.962 105.586 104.339 104.212 105.817 103.473C107.407 102.678 109.369 102.126 110.869 101.293C112.436 100.423 114.715 100.742 116.105 99.4782C116.826 98.8225 117.608 98.2787 118.22 97.5981C118.972 96.7622 119.378 95.8397 120.244 94.9738C121.899 93.3184 123.111 92.715 125.506 92.715C126.588 92.715 130.011 93.2588 130.728 92.3625C131.766 91.0653 131.208 88.8244 132.086 87.7275C134.129 85.1738 134.685 82.0118 137.778 80.5465C138.708 80.1062 139.697 79.6676 140.599 79.267C141.303 78.954 142.163 78.1167 142.844 77.9222C143.857 77.6328 144.504 75.7794 145.247 75.0367C146.177 74.1069 147.744 73.7589 148.132 72.3993C148.638 70.6299 148.199 69.0753 147.297 67.451C146.547 66.1018 146.243 63.9087 147.466 62.6854C148.758 61.3937 148.744 59.2761 148.367 57.5804C147.926 55.5963 145.559 55.3308 144.176 56.575C143.471 57.2093 142.288 60.2794 141.069 58.7554C140.113 57.5603 137.381 58.0604 136.421 58.9252C135.054 60.155 133.331 60.4818 131.786 61.3406C130.466 62.0738 128.318 63.1032 126.733 63.1032C124.969 63.1032 123.669 62.6332 121.915 62.6332C120.801 62.6332 118.112 62.6461 117.28 61.9804C117.028 61.7789 115.099 61.6931 114.747 61.6931C114.11 61.6931 113.074 61.4167 112.514 61.1056C111.923 60.7772 110.804 60.518 110.164 60.518C109.193 60.518 110.989 58.7114 111.274 58.4551C112.175 57.6439 114.982 57.6178 114.982 56.1703C114.982 55.1202 115.319 55.1127 113.911 55.1127C113.026 55.1127 112.185 55.3477 111.222 55.3477C109.588 55.3477 107.902 55.5827 106.169 55.5827C103.157 55.5827 107.746 54.1301 108.532 53.4676C110.043 52.1952 112.339 51.4565 114.16 50.6474C115.714 49.9564 117.486 50.3178 118.977 49.6551C119.964 49.2166 119.447 45.6966 119.447 44.6546C119.447 42.7071 123.07 43.2898 123.208 42.1869C123.41 40.5641 123.419 38.9918 122.96 37.3822C122.321 35.1489 115.178 32.6464 120.492 31.1282C121.974 30.7046 123.513 29.1136 125.088 29.0261C126.953 28.9225 127.99 30.6712 130.01 30.6712C132.155 30.6712 133.115 30.2348 134.958 29.3133C136.71 28.4377 137.543 28.2405 137.543 26.0884C137.543 24.7219 135.193 24.4961 135.193 22.9157C135.193 20.8152 137.071 20.5507 134.841 18.816C133.699 17.9276 130.951 18.4504 129.553 18.4504C127.79 18.4504 126.028 18.4504 124.265 18.4504C122.532 18.4504 120.846 18.6854 119.212 18.6854C117.819 18.6854 117.703 16.3663 116.679 15.343C115.585 14.2485 114.699 12.8101 112.984 12.8101C111.049 12.8101 109.022 12.105 106.992 12.105C103.231 12.105 99.7268 11.41 97.7738 14.9252C97.6073 15.225 96.7324 16.5703 96.4159 16.5703C96.1005 16.5703 95.2766 15.3896 94.8753 15.1602C92.7394 13.9398 90.5163 14.6902 88.1904 14.6902C86.0666 14.6902 84.0601 15.1602 81.9625 15.1602C80.3725 15.1602 79.0332 17.3331 77.6148 17.5104C76.9638 17.5917 73.3845 20.4159 73.3845 18.8029C73.3845 17.2688 73.6195 15.4182 73.6195 13.7501C73.6195 10.1428 71.3508 8.10978 67.7441 8.10978C66.2482 8.10978 66.9711 4.71542 66.2296 3.76201C65.0554 2.25231 64.2331 2.11084 62.3388 1.99941C61.0264 1.92221 59.1345 -0.122756 58.5655 1.86884C58.2637 2.92525 54.4098 2.46943 53.5258 2.46943C52.5341 2.46943 49.2064 2.07539 48.5252 2.75668C48.1635 3.11836 49.178 4.35707 49.178 4.81958C49.178 6.10392 49.2917 6.311 48.3554 7.03916C45.9252 8.92932 43.8973 10.6567 41.8925 13.1626C40.5411 14.852 39.6412 16.3694 39.7774 18.6854C39.8798 20.4264 38.2538 17.5104 37.0747 17.5104C34.0196 17.5104 31.675 20.8864 29.7762 22.7851C28.666 23.8953 27.4303 25.0308 25.6243 25.0308C22.4303 25.0308 24.0356 23.0643 22.9739 21.1531C22.2349 19.8229 23.7964 17.1296 23.7964 15.6303C23.7964 14.7284 24.0269 13.7067 23.3264 13.0451C22.6473 12.4037 21.5844 14.082 21.1068 14.5596C19.7064 15.9601 19.6492 17.7401 18.3911 19.1555C17.4532 20.2106 18.1341 19.8605 16.981 19.8605C16.1174 19.8605 15.6674 20.1673 14.9703 20.5656C13.8245 21.2203 13.7567 23.6849 13.1685 24.7958C12.4084 26.2316 9.93055 27.1225 9.93055 29.0261" stroke="black" stroke-width="2" stroke-linecap="round"/>
</svg>
