<svg width="54" height="89" viewBox="0 0 54 89" fill="none" xmlns="http://www.w3.org/2000/svg">
<path d="M26.33 2.45928C24.8471 2.45928 23.7806 3.73486 22.3969 3.73486C21.1549 3.73486 19.5873 2.79543 18.3694 2.44747C17.0669 2.07532 15.2296 1.50638 13.9994 2.67187C12.8632 3.7482 11.9987 5.49974 13.3616 6.71121C13.8892 7.18021 16.9501 8.21993 15.3812 9.47497C14.2735 10.3611 12.6869 11.5708 12.2868 12.971C11.8531 14.4889 11.6904 15.6214 13.0427 16.7033C14.2461 17.666 12.7612 19.2671 11.9797 19.8922C11.5071 20.2702 11.1062 20.8461 10.6451 21.215C10.1615 21.6019 9.46269 21.7832 9.0624 22.1835C8.1199 23.126 7.06175 23.519 6.39313 24.7819C5.06996 27.2812 3.56153 31.186 6.45218 33.4984C7.64227 34.4504 8.29665 34.9866 9.96002 34.9866C10.566 34.9866 14.4493 34.8426 14.1647 35.4118C12.6957 38.3496 8.93118 39.3744 7.57421 42.4275C6.33199 45.2224 6.77107 48.576 6.77107 51.6754C6.77107 53.0366 8.33836 54.464 8.94429 55.6084C9.53803 56.7299 9.84032 58.347 10.7632 59.2698C11.6987 60.2053 12.4303 61.0612 13.4679 61.8682C14.1173 62.3734 16.0119 64.7558 14.956 65.6005C13.9393 66.4139 11.8197 65.698 10.9049 65.1753C9.83439 64.5636 9.13488 63.1971 8.15295 62.4115C7.17694 61.6307 6.81346 60.0209 5.96793 59.1753C5.404 58.6114 3.15446 57.4298 2.47189 58.1124C-0.177881 60.7621 4.33227 62.4516 5.44825 64.9627C6.05899 66.337 5.93901 67.95 6.33407 69.3327C6.86155 71.1789 8.30982 70.8191 9.32223 72.0847C9.51212 72.3221 10.7951 72.514 11.1411 72.6398C12.0732 72.9787 11.8734 74.0802 11.8734 74.8484C11.8734 75.5321 9.67468 77.9739 10.7159 78.5689C12.3645 79.5109 13.3616 79.1229 13.3616 81.3326C13.3616 82.256 13.8286 84.8941 14.4718 85.5373C15.4854 86.551 17.7435 85.375 18.6765 86.5413C18.925 86.852 19.8665 87.3795 20.271 87.6042C21.2304 88.1372 21.4363 87.498 22.3969 87.498C25.8016 87.498 29.1347 87.498 32.4953 87.498C34.3365 87.498 34.8338 85.8649 34.8338 84.309C34.8338 82.4646 34.7688 81.3977 36.1094 80.0571C37.0362 79.1303 38.6453 78.3417 39.2984 77.1988C39.5996 76.6716 41.5895 74.9547 42.1684 74.9547C43.4168 74.9547 45.7946 73.998 46.9518 73.4193C48.8628 72.4638 50.3534 72.7234 50.3534 70.2776C50.3534 69.1125 49.8975 66.7186 50.4597 65.7068C51.1974 64.379 50.1408 62.3525 50.1408 61.0297C50.1408 59.1771 48.6526 57.524 48.6526 55.7029C48.6526 53.9341 49.7146 52.7519 50.566 51.262C51.9178 48.8965 54.4431 46.6769 51.4636 44.2936C49.3909 42.6355 47.8939 39.7187 47.1763 37.207C46.6631 35.4111 45.0047 36.6873 43.5503 36.6873C41.6445 36.6873 42.6563 34.4565 43.3849 33.5456C44.0051 32.7705 44.9844 30.1356 44.2353 29.1992C43.3116 28.0444 44.7618 25.7656 45.4164 24.9473C46.0918 24.1031 44.0028 21.8565 43.4322 21.2859C42.5063 20.3601 42.5579 18.4815 41.3062 17.7662C40.5963 17.3606 40.0308 16.4763 39.1921 16.2899C38.8486 16.2135 37.5913 15.7919 37.385 15.534C36.893 14.919 35.008 13.0933 34.2905 12.8883C33.1208 12.5541 31.9092 11.6009 30.5819 11.6009C29.1962 11.6009 27.4156 11.5291 26.3772 10.4907C25.3739 9.48737 25.6922 7.16076 25.6922 5.86082C25.6922 5.0813 25.6922 4.30178 25.6922 3.52226C25.6922 2.22133 25.8941 2.03052 24.6292 1.60889" stroke="black" stroke-width="2" stroke-linecap="round"/>
</svg>
