<svg width="114" height="124" viewBox="0 0 114 124" fill="none" xmlns="http://www.w3.org/2000/svg">
<path d="M61.2118 1.29488C58.3492 1.29488 55.6586 7.3995 54.0308 9.20819C52.5198 10.8872 52.4954 12.8749 52.4954 15.0074C52.4954 15.6173 53.3703 16.5283 53.5465 17.1451C53.7477 17.8493 53.9836 18.9684 53.9836 19.6845C53.9836 21.4492 56.5347 22.078 56.5347 23.8301C56.5347 25.6006 54.5968 27.7823 53.2395 28.838C51.6891 30.0438 50.6509 31.1491 48.456 31.271C46.2349 31.3944 44.7783 31.6416 43.1884 33.2316C42.6482 33.7718 42.5033 34.9215 42.5033 35.6292C42.5033 36.7521 41.6772 37.807 41.2277 38.8182C40.4597 40.5464 39.0909 42.3477 37.401 43.3418C34.1083 45.2787 32.0353 48.6983 29.1806 51.1724C28.094 52.1142 27.1417 53.0105 26.1334 54.0188C25.4055 54.7467 24.4157 54.7681 23.8421 55.3417C22.7462 56.4375 23.4983 59.1708 22.7791 60.6093C22.0808 62.0061 19.8892 63.0245 18.3736 63.3613C17.4465 63.5673 16.3902 64.597 15.9287 65.4046C15.3834 66.3588 14.3442 66.7719 13.8028 67.7195C12.8119 69.4536 10.5742 71.2788 9.12565 72.7274C7.64249 74.2105 6.46294 75.6801 5.20442 77.2982C4.68444 77.9667 4.63387 78.9539 4.28317 79.743C3.87122 80.67 3.45438 81.6368 2.96035 82.6249C2.11612 84.3134 1.47217 86.6236 1.47217 88.4595C1.47217 90.6093 1.64948 92.287 2.09815 94.3059C2.493 96.0827 4.02333 97.4876 4.02333 99.5145C4.02333 103.834 9.70272 103.789 11.2516 107.274C11.982 108.918 12.3819 110.702 13.2122 112.27C13.6046 113.012 14.1647 113.725 14.9839 113.959C15.6724 114.156 18.0184 114.171 18.3618 114.514C19.8192 115.972 19.7555 117.861 19.7555 119.924C19.7555 121.573 21.5246 123.564 22.9917 122.097C23.6923 121.396 23.8738 120.419 24.3263 119.605C24.8842 118.601 24.438 117.15 24.9641 116.203C25.2355 115.715 26.3124 113.823 27.1964 114.928C27.5935 115.424 27.9074 116.581 28.3657 116.947C30.244 118.45 31.2869 115.416 32.7239 115.247C34.7128 115.013 36.1765 115.884 38.2041 115.884C39.9943 115.884 41.1575 114.778 42.8222 114.408C43.9108 114.166 45.2285 113.897 46.2356 113.44C48.5972 112.366 51.0104 111.647 52.9206 109.837C54.3096 108.521 54.4087 106.345 54.4087 104.511C54.4087 101.884 55.7408 99.8403 57.3969 97.9082C60.6598 94.1017 65.8486 92.7229 70.3535 91.4359C73.2632 90.6045 75.9714 89.0973 79.0699 89.0973C79.675 89.0973 80.4054 90.1669 80.818 90.5382C81.603 91.2448 82.9331 91.2949 83.6998 91.9083C85.6533 93.4711 88.6546 90.3729 90.6565 90.3729C91.4291 90.3729 91.2854 91.864 91.873 92.4516C92.4129 92.9915 93.8434 92.7114 94.5895 92.7114C95.7501 92.7114 97.12 91.6662 98.3218 91.4477C99.4547 91.2417 100.757 91.2233 101.912 91.2233C103.21 91.2233 104.595 91.362 105.869 91.117C107.171 90.8665 108.43 90.191 109.578 89.9359C110.659 89.6955 113.971 86.9123 112.707 85.6485C111.002 83.9433 107.577 84.3932 105.81 82.9792C104.265 81.7429 101.706 83.3572 100.223 83.3572C98.049 83.3572 98.6289 80.4178 98.6289 79.2116C98.6289 77.7799 97.5545 75.1581 96.6682 74.0502C95.4236 72.4945 94.9168 70.495 93.9517 68.8061C92.0966 65.5598 91.188 62.2535 91.188 58.2708C91.188 56.5882 88.0377 55.222 87.3612 53.7C86.5436 51.8602 86.2982 50.639 86.2982 48.4913C86.2982 47.559 86.0996 46.8926 85.8612 46.0583C85.5848 45.0907 85.4641 43.9022 85.129 42.9638C84.7885 42.0107 85.0879 40.8004 84.8219 39.8694C84.5515 38.923 83.9771 38.0992 83.7589 37.1174C83.3483 35.2699 83.0893 33.7971 81.881 32.2867C81.0286 31.2213 81.6211 27.8309 81.6211 26.4876C81.6211 25.2298 81.3051 21.7518 80.1329 21.0191C78.5755 20.0457 78.1727 16.8388 77.4164 15.3263C76.5062 13.5058 75.6338 12.8028 73.6487 12.3617C71.8516 11.9624 69.9157 10.9822 68.7472 9.47985C67.6315 8.04535 66.1001 6.9375 65.2984 5.33421C64.9598 4.65704 62.8697 1.08228 62.2748 1.08228" stroke="black" stroke-width="2" stroke-linecap="round"/>
</svg>
