<svg width="191" height="160" viewBox="0 0 191 160" fill="none" xmlns="http://www.w3.org/2000/svg">
<path d="M134.665 23.5128C133.241 23.6908 132.652 26.9274 132.652 28.098C132.652 28.9927 132.652 29.8874 132.652 30.7821C132.652 31.6128 133.323 32.1701 133.323 33.0188C133.323 34.7593 134.843 35.9174 136.455 34.9697C137.952 34.0887 139.388 32.5111 140.704 31.3412C141.227 30.8768 144.774 28.5258 145.277 28.6696C146.405 28.992 143.15 33.5499 142.941 34.1247C141.651 37.6714 137.739 40.322 136.691 43.9911C136.276 45.4416 135.397 47.0801 136.057 48.5639C136.538 49.6462 134.912 49.1005 134.218 49.4089C133.411 49.7675 132.64 50.2119 131.857 50.6267C129.147 52.0614 124.633 54.3649 123.034 57.1628C121.15 60.4599 121.021 64.6307 121.021 68.4706C121.021 70.4425 120.555 71.9068 118.735 70.086C117.304 68.6556 113.702 69.7486 112.074 70.434C110.653 71.0324 108.35 71.3783 106.818 71.3783C104.635 71.3783 105.794 69.0508 104.134 68.6819C102.287 68.2714 100.775 67.6814 98.8778 67.576C96.6009 67.4495 93.9435 67.5824 91.6706 67.1783C89.5052 66.7933 87.1318 66.6813 84.8859 66.6813C83.9825 66.6813 82.657 66.4429 81.7794 66.6937C81.0247 66.9093 80.3207 67.5487 79.5054 67.7996C76.3947 68.7568 72.1829 68.7919 70.0242 71.4902C69.0005 72.7698 68.9059 74.6645 68.9059 76.2991C68.9059 78.8401 70.3121 78.9832 72.5343 78.9832C73.6649 78.9832 74.7813 78.3831 75.616 77.6411C76.6792 76.696 74.6058 78.204 74.274 78.5358C72.9296 79.8802 71.0064 80.9822 69.3532 81.7169C67.5659 82.5112 65.0699 82.4314 63.4259 83.3447C62.0281 84.1213 59.7454 83.0092 58.2815 83.0092C53.6794 83.0092 55.4435 90.9027 54.4791 93.4099C53.7061 95.4194 54.7181 102.735 51.4595 102.916C49.8306 103.006 48.6087 105.752 47.3092 106.495C46.6232 106.887 45.9577 107.765 45.3086 108.284C44.5173 108.917 43.4138 109.621 42.7488 110.397C42.0727 111.185 39.8839 114.919 38.934 114.497C38.6797 114.384 38.2868 113.694 38.2629 114.1C38.2253 114.74 38.2662 114.728 38.6606 115.044C39.1593 115.443 40.0106 116.336 38.7103 116.336C37.0627 116.336 34.8623 115.041 34.1872 116.56C33.4554 118.206 34.4058 120.571 33.6156 122.152C31.8327 125.717 28.5818 128.726 25.8492 131.459C23 134.308 20.3535 137.029 17.5112 139.871C16.7938 140.589 13.3652 141.798 13.0005 140.157C12.5733 138.235 10.4393 138.938 9.28512 139.598C7.82423 140.433 7.37724 141.984 6.16615 142.953C5.20597 143.721 3.70589 144.295 3.35784 145.513C2.98053 146.833 1.4511 148.716 3.1466 149.613C4.64615 150.407 5.91987 151.546 7.57031 150.061C8.00741 149.667 8.59056 149.155 9.07388 148.769C9.58512 148.36 10.6015 148.229 10.9751 147.762C11.627 146.947 14.9587 148.044 15.4485 148.657C16.3709 149.81 18.5107 150.043 19.5243 150.956C20.6475 151.966 21.7532 152.936 22.7799 153.963C23.782 154.965 24.0255 156.582 24.8924 157.666C26.0569 159.121 28.3265 157.815 29.2664 156.771C30.1934 155.741 30.6581 153.378 30.6581 152.012C30.6581 151.269 31.2784 150.308 30.5339 149.564C29.767 148.797 29.5398 148.411 29.5398 147.315C29.5398 145.59 30.5337 143.22 31.5528 141.947C32.2746 141.044 31.5143 140.521 32.3357 141.835C32.7452 142.49 33.3551 143.725 33.5534 144.419C34.3246 147.119 36.4876 144.068 36.8712 143.003C37.035 142.548 37.1813 140.097 37.5919 140.045C38.1019 139.982 39.2796 139.121 39.8286 138.877C41.3749 138.19 43.6314 138.367 44.5755 137.187C45.62 135.882 45.4177 134.456 46.7624 133.112C48.1257 131.748 50.5226 130.651 52.4661 130.651C54.4561 130.651 56.41 130.204 58.2939 130.204C60.1455 130.204 62.0722 129.98 63.9851 129.98C66.0006 129.98 67.8257 130.427 69.8006 130.427C70.7731 130.427 72.506 130.804 72.9319 129.632C73.5551 127.918 74.6413 126.825 74.2616 124.736C74.119 123.952 72.6264 123.533 71.9379 123.73C71.0557 123.982 71.1426 125.625 71.1426 126.277C71.1426 129.752 73.8005 129.78 76.0758 130.775C77.4537 131.378 79.9633 132.983 81.5433 132.105C83.5017 131.017 85.5603 133.557 86.3025 135.125C87.0536 136.71 88.2446 138.135 89.4836 139.374C90.1128 140.003 93.7694 140.504 94.4044 139.71C95.507 138.331 95.5227 136.481 95.5227 134.789C95.5227 132.438 96.8956 129.819 97.9334 127.743C98.1355 127.339 99.33 125.577 99.9464 126.625C100.191 127.04 100.812 129.304 100.891 127.246C100.953 125.621 101.338 124.074 101.338 122.375C101.338 121.327 101.314 120.417 101.736 119.468C102.548 117.639 102.009 115.667 102.009 113.876C102.009 112.959 104.061 107.263 104.581 108.408C105.06 109.462 105.478 110.744 106.706 110.744C107.68 110.744 108.811 109.521 109.403 108.831C110.407 107.659 114.049 105.091 115.429 104.929C116.508 104.802 117.225 103.854 118.387 103.811C119.307 103.777 120.215 104.034 121.021 104.034C122.399 104.034 123.048 103.809 124.252 103.152C125.271 102.596 125.936 101.574 127.172 101.574C129.473 101.574 130.833 102.348 132.776 102.904C134.193 103.308 135.608 103.76 136.79 104.705C137.334 105.14 136.957 106.315 137.461 106.718C137.887 107.059 137.336 107.389 138.132 107.389C138.579 107.389 139.027 107.389 139.474 107.389C143.937 107.389 144.445 112.882 148.533 114.05C149.653 114.37 149.875 114.988 149.875 116.113C149.875 116.683 149.875 113.879 149.875 113.205C149.875 111.305 151.658 109.626 153.627 109.626C155.768 109.626 157.773 108.955 159.828 108.955C162.182 108.955 163.825 109.626 166.19 109.626C168.735 109.626 170.646 109.098 171.906 106.83C173.423 104.101 167.992 103.846 167.992 102.804C167.992 101.798 171.92 101.164 172.689 100.903C174.953 100.135 177.286 99.7846 179.673 99.7846C181.135 99.7846 182.322 99.9812 183.152 98.8402C183.662 98.139 183.425 96.5886 183.425 95.7585C183.425 93.8542 179.842 94.5637 179.176 93.3975C178.754 92.6589 178.249 91.7559 178.07 90.9496C177.997 90.6244 178.227 89.9448 177.945 89.7194C177.706 89.5278 177.28 89.2017 177.163 88.9365C176.777 88.0697 175.126 87.3017 174.305 86.9856C173.404 86.6391 172.805 85.3052 172.192 84.6246C171.672 84.0461 171.748 83.1211 171.795 82.3382C171.839 81.5819 173.932 82.5439 174.255 82.5619C176.521 82.6878 178.932 85.2384 181.189 83.2329C181.919 82.5839 183.291 82.8489 183.823 81.8909C184.511 80.6517 184.319 79.2106 184.718 77.9145C185.415 75.6495 184.968 73.8274 183.773 71.95C182.968 70.6851 180.965 68.2572 180.965 66.7931C180.965 64.8931 182.188 63.091 183.873 62.3818C186.272 61.3718 187.491 60.0507 188.62 57.5107C189.442 55.6613 188.001 52.4681 186.669 51.1361C185.091 49.5584 184.991 48.3843 184.991 46.2154C184.991 43.9931 181.324 42.6366 180.294 40.8348C179.307 39.1068 178.728 37.0313 178.728 35.0318C178.728 34.4354 178.481 33.0548 178.902 32.6336C179.806 31.7296 180.07 31.2497 180.07 29.9992C180.07 27.5898 178.539 26.9279 177.56 25.0785C176.897 23.8256 177.386 21.2453 177.386 19.8222C177.386 18.1658 179.668 16.5331 180.294 15.1251C180.632 14.3642 181.087 12.7614 180.692 11.8819C180.302 11.0165 179.055 9.4568 178.952 8.5268C178.884 7.9179 177.235 6.12941 176.715 5.79305C175.976 5.31439 176.185 3.51178 175.15 3.38237C174.594 3.31294 170.091 1.16608 170.005 2.71136C169.873 5.08928 168.269 6.27209 166.327 7.13507C164.551 7.92464 162.527 7.99106 160.81 8.84988C159.896 9.30687 157.934 9.99387 156.933 9.42148C156.121 8.95732 155.244 8.74875 154.684 9.75699C152.955 12.8695 142.622 8.91436 142.059 10.8878C141.501 12.8396 144.283 14.0165 144.283 15.908C144.283 16.7411 144.632 18.155 143.836 18.6417C142.801 19.2742 141.98 20.2769 141.425 21.2761C140.416 23.0922 138.201 24.4341 136.231 24.6311C135.009 24.7533 134.308 25.0994 133.82 26.1968C133.394 27.1556 133.477 29.363 132.652 29.7755" stroke="black" stroke-width="3" stroke-linecap="round"/>
</svg>
