<svg width="89" height="102" viewBox="0 0 89 102" fill="none" xmlns="http://www.w3.org/2000/svg">
<path d="M4.12975 27.8119C4.02376 28.6599 1.95982 32.3303 3.77723 32.7342C5.36441 33.0869 7.4352 33.3631 8.64726 34.5751C9.72773 35.6555 10.9166 36.74 11.9897 37.8131C13.1481 38.9715 10.0233 40.8912 9.30007 41.7953C8.2639 43.0905 6.80482 44.5125 5.59206 45.7252C5.1826 46.1347 4.08723 47.6353 4.41699 48.2582C4.7034 48.7992 7.05271 48.4932 7.65497 48.4932C8.52467 48.4932 9.74621 48.2681 10.5796 48.5062C11.0055 48.6279 10.7471 50.8483 10.3446 51.0784C9.37843 51.6305 8.80322 52.7384 7.77248 53.311C6.90334 53.7938 6.11461 54.1914 5.18732 54.6036C3.57328 55.3209 1.54459 57.4565 1.54459 59.3039C1.54459 60.0147 1.17568 62.0644 2.24964 62.124C3.0929 62.1709 3.9686 62.5941 4.83479 62.5941C6.06735 62.5941 8.69344 64.4571 9.30007 65.5187C10.6966 67.9625 9.35966 68.8475 8.84311 71.1721C7.84381 75.6692 6.4799 79.7775 6.4799 84.4504C6.4799 88.9693 10.5816 90.2053 12.5903 93.7204C13.5424 95.3866 14.9521 96.2012 16.8205 96.2012C19.4354 96.2012 19.9814 96.8776 21.9909 98.1335C23.8882 99.3193 24.3726 100.431 26.8087 100.431C28.9506 100.431 30.6313 99.4906 32.684 99.0344C38.1201 97.8263 34.4466 94.1013 34.4466 90.5608C34.4466 84.9457 40.2247 87.9757 43.4947 87.9757C44.5471 87.9757 45.2529 87.8495 46.0146 87.0878C46.558 86.5444 47.2485 85.3905 48.0775 85.3905C49.3565 85.3905 49.9747 85.9059 51.1849 86.2783C52.3109 86.6248 53.8777 86.2224 54.8929 86.0955C55.3112 86.0432 56.7402 85.1377 57.008 84.8029C57.5648 84.1069 59.2156 84.1586 59.8282 83.3929C60.8493 82.1164 62.814 80.5881 64.411 80.2332C66.4726 79.7751 66.119 81.7727 67.8187 82.6225C69.7524 83.5894 68.7831 86.9622 70.6911 87.0356C72.4699 87.104 75.1042 87.5432 75.1042 84.8029C75.1042 83.7144 75.5077 80.8603 76.8798 80.4682C78.7156 79.9437 80.8547 78.8161 80.9795 76.6949C81.0976 74.6869 82.8601 72.5114 84.3872 71.2896C87.7559 68.5945 88.8628 65.2027 85.732 62.0718C83.9197 60.2594 85.8642 59.0697 86.3718 57.2932C86.9617 55.2287 83.4741 54.3902 82.2721 53.4285C80.9857 52.3993 79.8411 50.7828 79.0472 49.4332C78.0097 47.6695 76.8567 47.028 75.3914 45.8558C74.8141 45.394 73.786 45.2279 73.1065 44.8505C72.2529 44.3762 72.0619 43.8319 71.4484 43.2184C70.3393 42.1094 70.8739 39.1546 70.8739 37.565C70.8739 36.0777 67.5802 34.7357 66.2258 34.6273C65.4606 34.5661 64.0822 33.4813 64.8157 32.5644C65.4491 31.7728 66.8225 31.8521 67.5315 31.2849C68.6949 30.3541 71.8195 29.3203 69.3463 27.3419C67.9583 26.2315 65.6674 25.524 63.941 24.7567C61.5743 23.7048 58.1004 18.1516 60.481 16.009C64.2383 12.6273 59.1232 9.57617 59.1232 5.83804C59.1232 1.22223 54.0735 1.25526 50.6626 1.25526C49.9477 1.25526 48.9245 2.00366 48.208 2.20837C47.222 2.49011 46.4905 2.66534 45.3748 2.66534C43.0457 2.66534 42.9353 5.01168 42.0846 6.54308C41.2932 7.96774 40.3579 10.9005 38.4419 11.1259C36.2041 11.3891 34.9167 13.0999 34.9167 15.3039C34.9167 17.1521 32.9165 18.1763 31.2739 18.1763C29.4893 18.1763 27.2677 20.9774 25.3986 19.9389C24.2073 19.2771 23.4029 17.3193 21.9909 17.2363C19.7423 17.104 18.2306 17.4446 18.2306 20.0564C18.2306 21.0673 18.4115 21.9365 17.1731 21.9365C16.2528 21.9365 14.9228 22.0312 14.1179 21.584C12.8056 20.855 9.77446 20.6691 8.24251 21.0095C6.52945 21.3902 4.7282 22.893 3.42471 24.0517C2.76077 24.6418 2.24964 25.2332 2.24964 26.1668C2.24964 27.3075 2.71796 28.752 1.30957 28.752" stroke="black" stroke-width="2" stroke-linecap="round"/>
</svg>
