<svg width="113" height="90" viewBox="0 0 113 90" fill="none" xmlns="http://www.w3.org/2000/svg">
<path d="M65.5342 1.22735C65.5342 0.385122 65.2352 3.03977 64.5775 3.56592C63.8449 4.15206 62.8724 4.40886 62.1799 5.10134C60.4738 6.80741 57.9149 6.75488 55.6484 6.75488C52.9631 6.75488 50.9921 7.77195 48.9989 9.56587C46.9828 11.3804 46.5922 7.47282 45.7627 6.43597C44.9541 5.42519 43.5949 7.32256 42.9989 7.39267C42.2781 7.47747 40.5371 8.17158 39.9753 8.621C39.1467 9.28396 35.8389 6.6276 35.3455 6.01079C34.9539 5.52135 32.5452 5.47929 31.9439 5.47929C30.7147 5.47929 30.0604 5.98852 28.9676 6.11709C28.1416 6.21425 27.3472 7.1723 26.5345 7.40448C26.0756 7.53558 24.1091 8.25714 23.8652 8.56194C23.5859 8.91118 21.1862 8.8525 20.6763 8.88083C20.0477 8.91575 18.0912 9.1358 17.6999 9.62492C17.4081 9.98967 15.421 10.2321 14.8889 10.4163C13.9662 10.7357 12.8004 11.7725 12.1252 12.4477C9.28974 15.2832 9.40633 19.9777 9.19607 23.7626C9.08281 25.8014 7.0681 28.091 5.06225 28.6641C3.76838 29.0338 2.34833 31.7908 1.58983 32.7389C1.1926 33.2354 1.54259 35.3332 1.54259 35.9869C1.54259 37.2215 2.28087 37.1844 2.81817 38.1247C3.66126 39.6001 6.19365 41.0174 7.7079 41.1955C11.0731 41.5914 16.1754 44.1265 18.3377 46.8293C19.0467 47.7155 19.6133 47.5153 19.6133 48.849C19.6133 49.9334 20.0385 50.9535 20.0385 52.038C20.0385 54.0579 21.7577 55.9589 20.57 58.097C19.8509 59.3914 17.9231 62.6382 18.5976 64.156C19.31 65.759 22.835 65.6279 24.1841 66.7071C25.6807 67.9043 25.2897 70.7626 26.0385 72.4472C26.4547 73.3838 26.4191 74.0767 27.3849 74.6913C28.349 75.3048 30.0759 74.9984 31.1998 74.9984C32.7616 74.9984 34.3871 77.0957 35.2982 78.2346C35.8078 78.8716 35.7384 79.6922 36.5147 80.3133C37.1911 80.8544 37.7843 81.6611 38.3218 82.333C39.6889 84.0419 41.5264 85.4351 42.8336 87.0692C43.6682 88.1125 43.4339 88.6046 45.0186 88.6046C46.2183 88.6046 47.0804 88.4181 48.2076 88.1676C49.3041 87.9239 50.0942 87.1164 51.2902 87.1164C52.2101 87.1164 53.8374 86.693 54.6918 86.3133C55.8473 85.7997 57.6954 86.2811 58.6248 86.7975C59.1348 87.0809 61.4625 87.7946 61.9201 87.2227C62.6483 86.3125 62.5578 85.266 62.5578 84.1401C62.5578 83.359 61.9238 81.4906 62.5106 80.9039C63.9389 79.4757 65.8395 78.8759 66.7153 77.1244C66.9515 76.6519 67.7785 74.597 68.5578 75.3764C69.349 76.1676 69.2534 76.8524 70.5302 77.1362C72.1891 77.5048 72.7866 77.5598 74.2507 76.7464C75.4655 76.0715 75.3685 75.0381 76.2113 74.1953C76.8004 73.6061 77.629 72.6816 78.4081 72.4591C79.5497 72.1329 80.8822 72.8724 82.0104 72.8724C83.2513 72.8724 84.5031 72.8714 85.1403 71.5969C85.6961 70.4853 86.4893 69.5469 87.8568 69.4709C88.6397 69.4274 90.2338 69.1188 90.9395 68.7268C92.1741 68.041 93.3314 66.8251 94.5536 66.2819C95.6154 65.81 95.7237 64.6623 96.9985 65.2662C97.972 65.7273 101.085 65.8508 100.022 67.1796C99.0877 68.3476 99.2323 72.7728 99.5615 74.2543C99.8969 75.7637 100.918 75.5833 101.841 76.3212C102.116 76.5411 102.277 75.7349 102.313 75.4236C102.395 74.7305 103.226 74.2908 103.542 73.7228C104.16 72.6093 105.485 72.4286 106.258 71.585C107.045 70.7267 107.251 69.6772 107.888 68.8803C109.351 67.0512 108.007 65.0064 105.821 65.0064C103.728 65.0064 102.143 62.9123 100.187 62.6678C99.1545 62.5387 97.9773 61.6215 96.8922 61.3804C95.8671 61.1526 94.9709 60.7644 93.9158 60.53C91.6405 60.0244 89.023 59.7686 86.7939 60.7072C85.6702 61.1803 83.8702 61.3922 82.6482 61.3922C81.1453 61.3922 80.416 61.505 80.416 59.7977C80.416 58.1787 85.279 57.927 86.2033 57.1875C87.3711 56.2533 91.1122 56.2899 92.6403 56.2899C94.6301 56.2899 96.5492 57.2397 98.3922 57.7663C100.15 58.2686 101.198 61.0765 102.951 61.1796C105.166 61.3099 107.429 61.1796 109.648 61.1796C111.205 61.1796 111.455 61.3151 111.455 59.6914C111.455 58.364 111.224 57.8593 110.652 56.7151C109.599 54.6084 107.116 53.3478 105.195 52.2506C103.188 51.1037 99.877 49.718 99.5497 46.9356C99.4348 45.9595 98.463 44.5438 98.0615 43.6404C97.5611 42.5145 97.2111 41.0425 97.2111 39.8018C97.2111 36.9015 98.6 35.1994 99.9276 32.6917C100.757 31.1251 103.144 29.0266 101.144 27.4712C100.15 26.6982 98.9367 26.6582 97.8489 26.0539C97.0774 25.6253 95.4906 24.2916 94.6599 24.1878C92.5043 23.9183 90.9664 21.5732 89.4513 20.3611C88.4627 19.5701 88.3786 17.9983 87.6442 17.1721C86.767 16.1852 87.4977 14.7567 86.8411 13.9359C86.4452 13.4411 86.0663 11.9316 85.9317 11.3257C85.7167 10.3584 85.0821 9.89257 84.349 9.30604C82.6517 7.94816 80.3102 6.3248 79.1876 4.4163C77.9477 2.30826 75.7464 1.86514 73.5066 1.86514C72.7254 1.86514 67.235 1.62138 67.235 1.43995" stroke="black" stroke-width="2" stroke-linecap="round"/>
</svg>
